<mxfile host="65bd71144e">
    <diagram id="lwRtOnNzH5Pgt3cx7eW7" name="Page-1">
        <mxGraphModel dx="558" dy="653" grid="1" gridSize="10" guides="1" tooltips="1" connect="1" arrows="1" fold="1" page="1" pageScale="1" pageWidth="827" pageHeight="1169" math="0" shadow="0">
            <root>
                <mxCell id="0"/>
                <mxCell id="1" parent="0"/>
                <mxCell id="8" value="" style="edgeStyle=none;html=1;" parent="1" source="6" target="7" edge="1">
                    <mxGeometry relative="1" as="geometry"/>
                </mxCell>
                <mxCell id="6" value="Start" style="ellipse;whiteSpace=wrap;html=1;aspect=fixed;" parent="1" vertex="1">
                    <mxGeometry x="360" y="60" width="80" height="80" as="geometry"/>
                </mxCell>
                <mxCell id="14" value="" style="edgeStyle=none;html=1;" edge="1" parent="1" source="7" target="13">
                    <mxGeometry relative="1" as="geometry"/>
                </mxCell>
                <mxCell id="7" value="Login til ESMAOS&lt;br&gt;[Hint:Sticky note på skærm]&lt;br&gt;(1234)" style="whiteSpace=wrap;html=1;" parent="1" vertex="1">
                    <mxGeometry x="320" y="200" width="160" height="90" as="geometry"/>
                </mxCell>
                <mxCell id="16" value="" style="edgeStyle=none;html=1;" edge="1" parent="1" source="9" target="11">
                    <mxGeometry relative="1" as="geometry"/>
                </mxCell>
                <mxCell id="9" value="Find kode til hemmeligheder&lt;br&gt;[Hint: i koder mappen]&lt;br&gt;Svar:king" style="whiteSpace=wrap;html=1;" parent="1" vertex="1">
                    <mxGeometry x="325" y="495" width="150" height="90" as="geometry"/>
                </mxCell>
                <mxCell id="19" value="" style="edgeStyle=none;html=1;" edge="1" parent="1" source="11" target="18">
                    <mxGeometry relative="1" as="geometry"/>
                </mxCell>
                <mxCell id="11" value="Amongus minigame&lt;br&gt;[Hint: Vinyler med tal ]&lt;br&gt;Svar:" style="whiteSpace=wrap;html=1;" parent="1" vertex="1">
                    <mxGeometry x="325" y="640" width="150" height="90" as="geometry"/>
                </mxCell>
                <mxCell id="15" value="" style="edgeStyle=none;html=1;" edge="1" parent="1" source="13" target="9">
                    <mxGeometry relative="1" as="geometry"/>
                </mxCell>
                <mxCell id="13" value="Lydklip&lt;br&gt;[Hint:Under papvinen ]&lt;br&gt;Svar:esmato" style="whiteSpace=wrap;html=1;" parent="1" vertex="1">
                    <mxGeometry x="325" y="350" width="150" height="90" as="geometry"/>
                </mxCell>
                <mxCell id="17" value="Nyt skrivebord" style="swimlane;" vertex="1" parent="1">
                    <mxGeometry x="100" y="790" width="600" height="460" as="geometry"/>
                </mxCell>
                <mxCell id="21" value="" style="edgeStyle=none;html=1;" edge="1" parent="17" source="18" target="20">
                    <mxGeometry relative="1" as="geometry"/>
                </mxCell>
                <mxCell id="18" value="Beer pong gåde&lt;br&gt;[Hint: Tal under kopperne ]&lt;br&gt;Svar:" style="whiteSpace=wrap;html=1;" vertex="1" parent="17">
                    <mxGeometry x="225" y="60" width="150" height="90" as="geometry"/>
                </mxCell>
                <mxCell id="20" value="Alphabet kontrakt&lt;br&gt;[Hint: Tegn som kan decodes med papiret i ballonen]&lt;br&gt;Svar:" style="whiteSpace=wrap;html=1;" vertex="1" parent="17">
                    <mxGeometry x="225" y="200" width="150" height="90" as="geometry"/>
                </mxCell>
                <mxCell id="22" value="Slut" style="ellipse;whiteSpace=wrap;html=1;" vertex="1" parent="1">
                    <mxGeometry x="340" y="1175" width="120" height="60" as="geometry"/>
                </mxCell>
                <mxCell id="23" value="" style="edgeStyle=none;html=1;" edge="1" parent="1" source="20" target="22">
                    <mxGeometry relative="1" as="geometry"/>
                </mxCell>
            </root>
        </mxGraphModel>
    </diagram>
</mxfile>